HIERARCHY
ROOT root
{
	OFFSET	0	13.1	24.9
	CHANNELS 6  Xposition Yposition Zposition Xrotation Yrotation Zrotation
	JOINT spine_1
	{
		OFFSET	0	9.99999	0
		CHANNELS 3  Xrotation Yrotation Zrotation
		JOINT spine_2
		{
			OFFSET	0	112	-10
			CHANNELS 3  Xrotation Yrotation Zrotation
			JOINT spine_3
			{
				OFFSET	0	206.5	19.3
				CHANNELS 3  Xrotation Yrotation Zrotation
				JOINT spine_4
				{
					OFFSET	0	110.4	14.6
					CHANNELS 3  Xrotation Yrotation Zrotation
					JOINT neck_1
					{
						OFFSET	0	71.8	-50.3
						CHANNELS 3  Xrotation Yrotation Zrotation
						JOINT neck_2
						{
							OFFSET	0	86.2	-25.8
							CHANNELS 3  Xrotation Yrotation Zrotation
							JOINT head_ee
							{
								OFFSET	0	179.8	-8.7
								CHANNELS 3  Xrotation Yrotation Zrotation
								End Site
								{
									OFFSET	1	0	0
								}
							}
						}
					}
					JOINT left_clavicle
					{
						OFFSET	-43.2	22.4	-70.8
						CHANNELS 3  Xrotation Yrotation Zrotation
						JOINT left_shoulder
						{
							OFFSET	-93.9	-5.79999	48.7
							CHANNELS 3  Xrotation Yrotation Zrotation
							JOINT left_elbow
							{
								OFFSET	-291.4	-30.8	15.2
								CHANNELS 3  Xrotation Yrotation Zrotation
								JOINT left_lowarm_twist
								{
									OFFSET	-110.7	-3.89999	13.6
									CHANNELS 3  Xrotation Yrotation Zrotation
									JOINT left_hand
									{
										OFFSET	-110.7	-3.89999	13.6
										CHANNELS 3  Xrotation Yrotation Zrotation
										JOINT left_ee
										{
											OFFSET	-80.8	-5.10001	12.1
											CHANNELS 3  Xrotation Yrotation Zrotation
											End Site
											{
												OFFSET	1	0	0
											}
										}
									}
								}
							}
						}
					}
					JOINT right_clavicle
					{
						OFFSET	43.2	22.4	-70.8
						CHANNELS 3  Xrotation Yrotation Zrotation
						JOINT right_shoulder
						{
							OFFSET	93.9	-5.79999	48.7
							CHANNELS 3  Xrotation Yrotation Zrotation
							JOINT right_elbow
							{
								OFFSET	291.4	-30.8	15.2
								CHANNELS 3  Xrotation Yrotation Zrotation
								JOINT right_lowarm_twist
								{
									OFFSET	110.7	-3.89999	13.6
									CHANNELS 3  Xrotation Yrotation Zrotation
									JOINT right_hand
									{
										OFFSET	110.7	-3.89999	13.6
										CHANNELS 3  Xrotation Yrotation Zrotation
										JOINT right_ee
										{
											OFFSET	80.8	-5.10001	12.1
											CHANNELS 3  Xrotation Yrotation Zrotation
											End Site
											{
												OFFSET	1	0	0
											}
										}
									}
								}
							}
						}
					}
				}
			}
		}
	}
	JOINT left_hip
	{
		OFFSET	-82.8	-127.5	0.300001
		CHANNELS 3  Xrotation Yrotation Zrotation
		JOINT left_knee
		{
			OFFSET	-28.2	-396.7	2.2
			CHANNELS 3  Xrotation Yrotation Zrotation
			JOINT left_ankle
			{
				OFFSET	-11.7	-411.3	35.4
				CHANNELS 3  Xrotation Yrotation Zrotation
				JOINT left_toes
				{
					OFFSET	0	-60	-88.6
					CHANNELS 3  Xrotation Yrotation Zrotation
					JOINT left_foot_ee
					{
						OFFSET	-22.5	-16.5	-42.2
						CHANNELS 3  Xrotation Yrotation Zrotation
						End Site
						{
							OFFSET	1	0	0
						}
					}
				}
			}
		}
	}
	JOINT right_hip
	{
		OFFSET	82.8	-127.5	0.300001
		CHANNELS 3  Xrotation Yrotation Zrotation
		JOINT right_knee
		{
			OFFSET	28.2	-396.7	2.2
			CHANNELS 3  Xrotation Yrotation Zrotation
			JOINT right_ankle
			{
				OFFSET	11.7	-411.3	35.4
				CHANNELS 3  Xrotation Yrotation Zrotation
				JOINT right_toes
				{
					OFFSET	0	-60	-88.6
					CHANNELS 3  Xrotation Yrotation Zrotation
					JOINT right_foot_ee
					{
						OFFSET	22.5	-16.5	-42.2
						CHANNELS 3  Xrotation Yrotation Zrotation
						End Site
						{
							OFFSET	1	0	0
						}
					}
				}
			}
		}
	}
}
MOTION
Frames: 8
Frame Time: 0.02
1258.44 717.999 -1071.51 -160.094 -54.099 -163.708 3.66238 0.335242 1.74595 3.66405 0.223481 1.76374 3.67012 -0.0384848 1.77742 3.6658 0.242664 1.7612 -9.32373 -0.036381 -7.09862 -9.18188 4.8137 -6.97688 -0.0 0.0 -0.0 1.68154 4.6304 3.64321 1.51114 -15.9248 57.0149 2.69298 -53.1349 1.34682 5.46313 0.160197 -0.679181 0.0105064 -0.40768 -0.101681 -0.0 0.0 -0.0 8.50266 3.98967 -16.6564 -33.367 22.76 -64.8507 0.426866 11.9399 -0.0446394 49.0041 0.898442 6.007 0.325165 -6.10211 -4.67693 0.0 0.0 0.0 5.4472 45.469 -5.9874 -16.1466 0.321618 2.44881 -19.086 -29.6208 3.65707 -5.40215 0.0 0.0 -0.0 0.0 -0.0 43.7246 -8.02778 -1.31886 -10.4575 -0.287327 -1.57694 1.6223 24.5365 0.281568 1.72137 -0.0 -0.0 0.0 0.0 0.0 
1279.82 717.226 -1059.4 -160.98 -53.8856 -164.61 3.4651 0.41696 1.68444 3.46663 0.308946 1.70755 3.4752 0.0484566 1.73459 3.47115 0.321754 1.70518 -11.316 0.276481 -4.47589 -11.2636 3.45662 -4.25019 -0.0 0.0 -0.0 1.4476 5.52159 3.29225 0.253152 -16.2745 57.0254 2.56093 -51.744 1.24213 8.48589 0.220789 -1.06051 0.582969 -0.040051 3.87966 -0.0 0.0 -0.0 8.82501 5.37112 -17.3345 -32.6067 23.2958 -64.8458 0.420634 11.7705 -0.043359 50.8886 1.03316 6.20718 -0.0446453 -8.12691 -3.09035 0.0 0.0 0.0 4.57332 44.1756 -6.40137 -18.4956 0.310508 2.80902 -19.6036 -29.6016 3.7557 -4.77867 0.0 0.0 -0.0 0.0 -0.0 43.3564 -8.37506 -1.7393 -12.7785 -0.311773 -1.93221 3.06676 28.8032 0.558144 4.34713 -0.0 -0.0 0.0 0.0 0.0 
1305.7 716.023 -1050.77 -162.122 -53.4894 -166.516 3.45638 0.426933 1.74639 3.45802 0.314959 1.77001 3.46708 0.0447483 1.79724 3.46272 0.327983 1.76764 -9.57969 -0.666435 -6.48618 -9.46093 3.18217 -6.51132 -0.0 0.0 -0.0 1.25431 7.0139 3.07739 -1.75893 -17.5265 58.3503 2.2935 -48.6396 1.03662 8.244 0.216683 -1.02989 0.91815 -0.944296 5.75731 -0.0 0.0 -0.0 9.12703 5.15343 -17.9703 -31.695 23.6603 -63.8612 0.36306 10.1958 -0.032389 53.2912 1.21437 6.45585 -0.39136 -9.73949 -1.52372 0.0 0.0 0.0 2.63312 42.7479 -4.37902 -21.7144 0.271329 3.30128 -16.6482 -29.5926 3.18526 -2.81111 0.0 0.0 -0.0 0.0 -0.0 41.61 -8.91031 -0.940782 -13.3676 -0.315686 -2.0225 1.12158 28.7406 0.205245 9.96792 -0.0 -0.0 0.0 0.0 0.0 
1331.73 714.377 -1044.56 -162.233 -54.5248 -166.905 3.37456 0.303886 1.90593 3.37656 0.182014 1.92139 3.38186 -0.112429 1.92671 3.37673 0.193214 1.9203 -8.6827 -2.72554 -10.6442 -8.36106 2.34355 -11.1196 -0.0 0.0 -0.0 0.95175 7.45151 2.57867 -2.25595 -18.5331 59.9811 2.05452 -45.4986 0.861578 7.39219 0.201191 -0.92218 1.10453 -1.05606 6.96737 -0.0 0.0 -0.0 8.9542 6.3369 -17.6068 -30.331 22.8549 -64.6453 0.3728 10.4634 -0.0341355 55.3068 1.37437 6.65853 -0.176307 -10.5564 -3.23973 0.0 0.0 0.0 -0.191952 39.4204 -2.34053 -20.9692 0.28286 3.18752 -12.9728 -28.8583 2.44949 -1.96376 0.0 0.0 -0.0 0.0 -0.0 41.4534 -9.02323 -0.0264634 -14.273 -0.31989 -2.16136 -14.5741 27.364 -2.70293 16.2319 -0.0 -0.0 0.0 0.0 0.0 
1352.83 716.52 -1036.49 -162.54 -54.3993 -167.708 3.44465 0.298511 2.04053 3.44695 0.16809 2.05538 3.452 -0.144074 2.0572 3.44614 0.18256 2.05415 -8.73185 -1.18208 -8.38355 -8.53096 3.63502 -8.53834 -0.0 0.0 -0.0 1.23514 9.09 3.2312 -3.68424 -19.0154 60.1885 1.84863 -42.4779 0.718534 4.94616 0.147823 -0.614302 0.117879 4.48339 2.65325 -0.0 0.0 -0.0 9.36166 6.56397 -18.4733 -30.1638 23.7137 -63.235 0.395605 11.088 -0.0383993 58.2278 1.61872 6.94206 -0.299404 -12.2684 -3.1605 0.0 0.0 0.0 0.360748 40.1816 -2.58746 -22.3149 0.260962 3.39284 -13.589 -28.3733 2.55101 -2.44431 0.0 0.0 -0.0 0.0 -0.0 40.5889 -9.1637 0.840613 -15.4761 -0.32208 -2.34593 -15.424 28.7153 -2.91357 20.0771 -0.0 -0.0 0.0 0.0 0.0 
1373.73 723.392 -1026.48 -163.478 -54.5091 -167.924 3.26015 0.328421 2.04219 3.26245 0.197833 2.05894 3.26871 -0.1218 2.06483 3.26282 0.20576 2.05817 -9.43156 -2.58066 -12.5382 -8.98617 3.78826 -12.9217 -0.0 0.0 -0.0 1.4252 9.62434 3.60815 -6.25542 -20.2793 60.4447 1.68077 -39.7777 0.608099 5.73141 0.166388 -0.712892 0.790054 -1.1041 4.83012 -0.0 0.0 -0.0 9.79026 5.35417 -19.3793 -29.6392 22.9149 -62.1071 0.472004 13.1605 -0.0544481 59.812 1.75721 7.09056 -0.366341 -11.4678 -2.4051 0.0 0.0 0.0 1.41714 37.2947 -4.48421 -25.4542 0.191171 3.86949 -6.91242 -28.5121 1.28704 0.352889 -0.0 -0.0 -0.0 0.0 -0.0 40.139 -9.52418 0.990181 -17.9484 -0.314416 -2.72514 -19.7667 29.1201 -3.76221 23.365 -0.0 -0.0 0.0 0.0 0.0 
1394.97 730.994 -1014.98 -163.041 -54.8871 -167.988 3.35961 0.531965 2.33318 3.36256 0.382463 2.36228 3.37718 0.018547 2.39296 3.36941 0.39613 2.36003 -10.3204 -3.26836 -13.4553 -9.81038 2.92261 -13.9345 -0.0 0.0 -0.0 2.08643 11.0655 4.85338 -7.95813 -19.5824 59.3822 1.43108 -35.3314 0.455794 5.39603 0.158624 -0.670753 0.415968 0.218625 2.86955 -0.0 0.0 -0.0 9.81781 5.00665 -19.4331 -27.3057 22.2779 -62.7684 0.45017 12.5715 -0.0495864 61.661 1.92402 7.259 -0.389848 -12.6487 -2.74652 0.0 0.0 0.0 7.81025 34.4427 -8.50266 -36.9247 -0.282799 5.56293 2.25985 -25.2046 -0.394438 4.66786 -0.0 -0.0 -0.0 0.0 -0.0 38.657 -9.5061 1.59444 -17.0969 -0.318903 -2.59458 -20.4584 29.0128 -3.88859 21.6381 -0.0 -0.0 0.0 0.0 0.0 
1414.06 734.686 -1004.26 -164.16 -53.8997 -168.955 3.31627 0.616456 2.45453 3.3195 0.459068 2.48875 3.33825 0.0733646 2.52965 3.32963 0.47183 2.48636 -12.2513 -2.02925 -11.8504 -11.8613 3.76266 -11.9676 -0.0 0.0 -0.0 2.04637 12.1954 4.86183 -9.99321 -20.0395 59.6135 1.27146 -32.203 0.367038 4.84532 0.145341 -0.601659 0.169586 1.86042 1.90881 -0.0 0.0 -0.0 9.72874 6.32628 -19.2574 -26.9079 23.014 -62.3514 0.551932 15.2917 -0.0740939 63.3857 2.08445 7.41123 -0.28255 -15.3638 -4.52971 0.0 0.0 0.0 11.5579 29.5095 -9.3732 -44.3822 -0.768835 6.60057 4.76066 -21.8346 -0.794609 6.45775 -0.0 -0.0 -0.0 0.0 -0.0 37.1571 -10.109 0.824689 -17.5573 -0.316718 -2.66518 -19.8259 28.2417 -3.72956 21.1028 -0.0 -0.0 0.0 0.0 0.0 
